<svg fill="#ffffff" shape-rendering="crispEdges" viewBox="0 0 20 20" xmlns="http://www.w3.org/2000/svg"><rect height="1" width="1" x="8" y="3"/><rect height="1" width="1" x="9" y="3"/><rect height="1" width="1" x="10" y="3"/><rect height="1" width="1" x="11" y="3"/><rect height="1" width="1" x="7" y="4"/><rect height="1" width="1" x="8" y="4"/><rect height="1" width="1" x="9" y="4"/><rect height="1" width="1" x="10" y="4"/><rect height="1" width="1" x="11" y="4"/><rect height="1" width="1" x="12" y="4"/><rect height="1" width="1" x="6" y="5"/><rect height="1" width="1" x="7" y="5"/><rect height="1" width="1" x="8" y="5"/><rect height="1" width="1" x="9" y="5"/><rect height="1" width="1" x="10" y="5"/><rect height="1" width="1" x="11" y="5"/><rect height="1" width="1" x="12" y="5"/><rect height="1" width="1" x="13" y="5"/><rect height="1" width="1" x="6" y="6"/><rect height="1" width="1" x="7" y="6"/><rect height="1" width="1" x="8" y="6"/><rect height="1" width="1" x="9" y="6"/><rect height="1" width="1" x="10" y="6"/><rect height="1" width="1" x="11" y="6"/><rect height="1" width="1" x="12" y="6"/><rect height="1" width="1" x="13" y="6"/><rect height="1" width="1" x="6" y="7"/><rect height="1" width="1" x="7" y="7"/><rect height="1" width="1" x="8" y="7"/><rect height="1" width="1" x="9" y="7"/><rect height="1" width="1" x="10" y="7"/><rect height="1" width="1" x="11" y="7"/><rect height="1" width="1" x="12" y="7"/><rect height="1" width="1" x="13" y="7"/><rect height="1" width="1" x="6" y="8"/><rect height="1" width="1" x="7" y="8"/><rect height="1" width="1" x="8" y="8"/><rect height="1" width="1" x="9" y="8"/><rect height="1" width="1" x="10" y="8"/><rect height="1" width="1" x="11" y="8"/><rect height="1" width="1" x="12" y="8"/><rect height="1" width="1" x="13" y="8"/><rect height="1" width="1" x="7" y="9"/><rect height="1" width="1" x="8" y="9"/><rect height="1" width="1" x="9" y="9"/><rect height="1" width="1" x="10" y="9"/><rect height="1" width="1" x="11" y="9"/><rect height="1" width="1" x="12" y="9"/><rect height="1" width="1" x="8" y="10"/><rect height="1" width="1" x="9" y="10"/><rect height="1" width="1" x="10" y="10"/><rect height="1" width="1" x="11" y="10"/><rect height="1" width="1" x="7" y="13"/><rect height="1" width="1" x="8" y="13"/><rect height="1" width="1" x="9" y="13"/><rect height="1" width="1" x="10" y="13"/><rect height="1" width="1" x="11" y="13"/><rect height="1" width="1" x="12" y="13"/><rect height="1" width="1" x="5" y="14"/><rect height="1" width="1" x="6" y="14"/><rect height="1" width="1" x="7" y="14"/><rect height="1" width="1" x="8" y="14"/><rect height="1" width="1" x="9" y="14"/><rect height="1" width="1" x="10" y="14"/><rect height="1" width="1" x="11" y="14"/><rect height="1" width="1" x="12" y="14"/><rect height="1" width="1" x="13" y="14"/><rect height="1" width="1" x="14" y="14"/><rect height="1" width="1" x="4" y="15"/><rect height="1" width="1" x="5" y="15"/><rect height="1" width="1" x="6" y="15"/><rect height="1" width="1" x="7" y="15"/><rect height="1" width="1" x="8" y="15"/><rect height="1" width="1" x="9" y="15"/><rect height="1" width="1" x="10" y="15"/><rect height="1" width="1" x="11" y="15"/><rect height="1" width="1" x="12" y="15"/><rect height="1" width="1" x="13" y="15"/><rect height="1" width="1" x="14" y="15"/><rect height="1" width="1" x="15" y="15"/><rect height="1" width="1" x="3" y="16"/><rect height="1" width="1" x="4" y="16"/><rect height="1" width="1" x="5" y="16"/><rect height="1" width="1" x="6" y="16"/><rect height="1" width="1" x="7" y="16"/><rect height="1" width="1" x="8" y="16"/><rect height="1" width="1" x="9" y="16"/><rect height="1" width="1" x="10" y="16"/><rect height="1" width="1" x="11" y="16"/><rect height="1" width="1" x="12" y="16"/><rect height="1" width="1" x="13" y="16"/><rect height="1" width="1" x="14" y="16"/><rect height="1" width="1" x="15" y="16"/><rect height="1" width="1" x="16" y="16"/><rect height="1" width="1" x="2" y="17"/><rect height="1" width="1" x="3" y="17"/><rect height="1" width="1" x="4" y="17"/><rect height="1" width="1" x="5" y="17"/><rect height="1" width="1" x="6" y="17"/><rect height="1" width="1" x="7" y="17"/><rect height="1" width="1" x="8" y="17"/><rect height="1" width="1" x="9" y="17"/><rect height="1" width="1" x="10" y="17"/><rect height="1" width="1" x="11" y="17"/><rect height="1" width="1" x="12" y="17"/><rect height="1" width="1" x="13" y="17"/><rect height="1" width="1" x="14" y="17"/><rect height="1" width="1" x="15" y="17"/><rect height="1" width="1" x="16" y="17"/><rect height="1" width="1" x="17" y="17"/><rect height="1" width="1" x="2" y="18"/><rect height="1" width="1" x="3" y="18"/><rect height="1" width="1" x="4" y="18"/><rect height="1" width="1" x="5" y="18"/><rect height="1" width="1" x="6" y="18"/><rect height="1" width="1" x="7" y="18"/><rect height="1" width="1" x="8" y="18"/><rect height="1" width="1" x="9" y="18"/><rect height="1" width="1" x="10" y="18"/><rect height="1" width="1" x="11" y="18"/><rect height="1" width="1" x="12" y="18"/><rect height="1" width="1" x="13" y="18"/><rect height="1" width="1" x="14" y="18"/><rect height="1" width="1" x="15" y="18"/><rect height="1" width="1" x="16" y="18"/><rect height="1" width="1" x="17" y="18"/><rect height="1" width="1" x="1" y="19"/><rect height="1" width="1" x="2" y="19"/><rect height="1" width="1" x="3" y="19"/><rect height="1" width="1" x="4" y="19"/><rect height="1" width="1" x="5" y="19"/><rect height="1" width="1" x="6" y="19"/><rect height="1" width="1" x="7" y="19"/><rect height="1" width="1" x="8" y="19"/><rect height="1" width="1" x="9" y="19"/><rect height="1" width="1" x="10" y="19"/><rect height="1" width="1" x="11" y="19"/><rect height="1" width="1" x="12" y="19"/><rect height="1" width="1" x="13" y="19"/><rect height="1" width="1" x="14" y="19"/><rect height="1" width="1" x="15" y="19"/><rect height="1" width="1" x="16" y="19"/><rect height="1" width="1" x="17" y="19"/><rect height="1" width="1" x="18" y="19"/></svg>
