<svg fill="#ffffff" shape-rendering="crispEdges" viewBox="0 0 20 20" xmlns="http://www.w3.org/2000/svg"><rect height="1" width="1" x="6" y="2"/><rect height="1" width="1" x="7" y="2"/><rect height="1" width="1" x="8" y="2"/><rect height="1" width="1" x="9" y="2"/><rect height="1" width="1" x="11" y="2"/><rect height="1" width="1" x="5" y="3"/><rect height="1" width="1" x="6" y="3"/><rect height="1" width="1" x="7" y="3"/><rect height="1" width="1" x="8" y="3"/><rect height="1" width="1" x="10" y="3"/><rect height="1" width="1" x="4" y="4"/><rect height="1" width="1" x="5" y="4"/><rect height="1" width="1" x="6" y="4"/><rect height="1" width="1" x="7" y="4"/><rect height="1" width="1" x="3" y="5"/><rect height="1" width="1" x="4" y="5"/><rect height="1" width="1" x="5" y="5"/><rect height="1" width="1" x="6" y="5"/><rect height="1" width="1" x="8" y="5"/><rect height="1" width="1" x="2" y="6"/><rect height="1" width="1" x="3" y="6"/><rect height="1" width="1" x="4" y="6"/><rect height="1" width="1" x="5" y="6"/><rect height="1" width="1" x="7" y="6"/><rect height="1" width="1" x="2" y="7"/><rect height="1" width="1" x="3" y="7"/><rect height="1" width="1" x="4" y="7"/><rect height="1" width="1" x="5" y="7"/><rect height="1" width="1" x="6" y="7"/><rect height="1" width="1" x="2" y="8"/><rect height="1" width="1" x="3" y="8"/><rect height="1" width="1" x="4" y="8"/><rect height="1" width="1" x="5" y="8"/><rect height="1" width="1" x="2" y="9"/><rect height="1" width="1" x="3" y="9"/><rect height="1" width="1" x="4" y="9"/><rect height="1" width="1" x="5" y="9"/><rect height="1" width="1" x="6" y="9"/><rect height="1" width="1" x="2" y="10"/><rect height="1" width="1" x="3" y="10"/><rect height="1" width="1" x="4" y="10"/><rect height="1" width="1" x="5" y="10"/><rect height="1" width="1" x="2" y="11"/><rect height="1" width="1" x="3" y="11"/><rect height="1" width="1" x="4" y="11"/><rect height="1" width="1" x="5" y="11"/><rect height="1" width="1" x="6" y="11"/><rect height="1" width="1" x="2" y="12"/><rect height="1" width="1" x="3" y="12"/><rect height="1" width="1" x="4" y="12"/><rect height="1" width="1" x="5" y="12"/><rect height="1" width="1" x="7" y="12"/><rect height="1" width="1" x="2" y="13"/><rect height="1" width="1" x="3" y="13"/><rect height="1" width="1" x="4" y="13"/><rect height="1" width="1" x="5" y="13"/><rect height="1" width="1" x="6" y="13"/><rect height="1" width="1" x="3" y="14"/><rect height="1" width="1" x="4" y="14"/><rect height="1" width="1" x="5" y="14"/><rect height="1" width="1" x="6" y="14"/><rect height="1" width="1" x="7" y="14"/><rect height="1" width="1" x="4" y="15"/><rect height="1" width="1" x="5" y="15"/><rect height="1" width="1" x="6" y="15"/><rect height="1" width="1" x="7" y="15"/><rect height="1" width="1" x="8" y="15"/><rect height="1" width="1" x="5" y="16"/><rect height="1" width="1" x="6" y="16"/><rect height="1" width="1" x="7" y="16"/><rect height="1" width="1" x="8" y="16"/><rect height="1" width="1" x="9" y="16"/><rect height="1" width="1" x="6" y="17"/><rect height="1" width="1" x="7" y="17"/><rect height="1" width="1" x="8" y="17"/><rect height="1" width="1" x="9" y="17"/><rect height="1" width="1" x="10" y="17"/></svg>
